<svg width="56" height="56" viewBox="0 0 56 56" fill="none" xmlns="http://www.w3.org/2000/svg">
<path d="M53.1818 26.1372C50.4715 28.51 48.0677 28.6586 45.1805 26.534C43.8528 25.5576 42.6643 24.3948 41.3332 23.4235C40.3035 22.672 39.2146 21.9266 38.0397 21.4629C36.0061 20.6582 33.9433 20.9313 32.0858 22.0597C30.8243 22.8266 29.6752 23.7816 28.5047 24.6919C28.3407 24.8181 28.217 24.8877 28.0925 24.8826C27.9679 24.8877 27.8451 24.8181 27.6803 24.6919C26.5106 23.7816 25.3607 22.8258 24.0991 22.0597C22.2442 20.9313 20.1788 20.6582 18.1452 21.4629C16.9704 21.9266 15.8815 22.6729 14.8518 23.4235C13.5207 24.3948 12.3321 25.5576 11.0044 26.534C8.11721 28.6586 5.71348 28.51 3.00316 26.1372C2.77988 25.9414 2.5566 25.7465 2.33331 25.5524C2.73694 27.7852 3.60689 29.7879 4.89162 31.6051C6.53104 33.9247 8.68057 35.5855 11.3789 36.4976C17.6858 38.6299 25.6527 35.6585 28.0933 30.049C30.534 35.6585 38.5 38.6299 44.8078 36.4976C47.5061 35.5855 49.6556 33.9238 51.295 31.6051C52.5789 29.7879 53.4497 27.7852 53.8533 25.5524C53.6283 25.7456 53.4051 25.9414 53.1818 26.1372Z" fill="url(#paint0_linear_1079_10)"/>
<defs>
<linearGradient id="paint0_linear_1079_10" x1="4.59061" y1="21.8699" x2="8.52253" y2="47.2281" gradientUnits="userSpaceOnUse">
<stop stop-color="#FF7A4D"/>
<stop offset="0.37" stop-color="#FF2526"/>
<stop offset="0.934543" stop-color="#FF4583"/>
</linearGradient>
</defs>
</svg>
