<svg width="50" height="22" viewBox="0 0 50 22" fill="none" xmlns="http://www.w3.org/2000/svg">
<path fill-rule="evenodd" clip-rule="evenodd" d="M49.9006 2.49997C49.9006 3.60455 48.9923 4.5 47.8724 4.5C46.7521 4.5 45.8439 3.60455 45.8439 2.49997C45.8439 1.39545 46.7521 0.5 47.8724 0.5C48.9923 0.5 49.9006 1.39545 49.9006 2.49997ZM38.9269 8.58778C38.8578 8.96509 38.748 9.40015 38.6006 9.88073C38.4526 10.3603 38.2632 10.8662 38.0396 11.3795C37.7962 11.8973 37.5444 12.3812 37.2915 12.8177C37.0411 13.2494 36.7921 13.6207 36.5521 13.9215C36.318 14.2146 36.1013 14.4312 35.9076 14.5657C35.7615 14.6672 35.6808 14.6781 35.6528 14.6781C35.6399 14.6781 35.6294 14.6761 35.6182 14.6711C35.5941 14.6606 35.5123 14.6061 35.477 14.3483C35.4439 14.1122 35.4616 13.8022 35.5292 13.4264C35.5982 13.0391 35.7079 12.6005 35.8554 12.1225C36.0019 11.6454 36.1912 11.1396 36.4182 10.6193C36.6431 10.1034 36.8891 9.62188 37.1497 9.18797C37.4096 8.7545 37.6628 8.38711 37.9022 8.09552C38.1347 7.81094 38.3521 7.59755 38.548 7.46133C38.6946 7.3597 38.7752 7.34874 38.8031 7.34874C38.8161 7.34874 38.827 7.35087 38.8368 7.35526C38.8609 7.36579 38.9425 7.42052 38.9786 7.67845C39.0114 7.91476 38.9939 8.22067 38.9269 8.58778ZM29.1782 8.58783C29.1091 8.96531 28.9993 9.40037 28.852 9.88073C28.7033 10.3628 28.5137 10.8686 28.291 11.3795C28.0472 11.8981 27.7954 12.3822 27.5431 12.8177C27.2922 13.2497 27.0433 13.6211 26.8032 13.9215C26.5697 14.2144 26.3529 14.431 26.1586 14.5657C26.0128 14.6672 25.9322 14.6781 25.9043 14.6781C25.8912 14.6781 25.8806 14.6761 25.8694 14.6711C25.8453 14.6606 25.7639 14.6063 25.7282 14.3482C25.6954 14.1133 25.7128 13.8031 25.7803 13.4264C25.8492 13.0405 25.959 12.6019 26.1068 12.1225C26.2532 11.6452 26.4426 11.1394 26.6697 10.6192C26.8952 10.1021 27.141 9.62056 27.4007 9.18802C27.6616 8.75406 27.9147 8.38645 28.1532 8.09563C28.3869 7.81034 28.6043 7.59684 28.7994 7.46127C28.9458 7.3597 29.0266 7.34874 29.0544 7.34874C29.0675 7.34874 29.0784 7.35087 29.0882 7.35526C29.1124 7.36579 29.1942 7.42052 29.2301 7.67845C29.2626 7.9141 29.2452 8.22012 29.1782 8.58783ZM18.6154 8.4912C18.5726 8.87394 18.4893 9.31179 18.3678 9.79242C18.2462 10.2712 18.0791 10.7758 17.8716 11.2921C17.6647 11.8059 17.4442 12.2892 17.2161 12.7285C16.9925 13.1576 16.7664 13.5237 16.544 13.8166C16.3271 14.1015 16.1234 14.3138 15.9382 14.4478C15.8011 14.5472 15.7253 14.5579 15.6992 14.5579C15.6872 14.5579 15.6771 14.5559 15.6659 14.5509C15.6408 14.5401 15.5552 14.484 15.5106 14.2221C15.4688 13.9826 15.4649 13.6734 15.4988 13.303C15.5332 12.9263 15.612 12.4936 15.7328 12.017C15.8537 11.5399 16.0207 11.0355 16.2292 10.5174C16.439 9.99698 16.6596 9.51372 16.8852 9.08064C17.1077 8.65188 17.334 8.28132 17.5583 7.97942C17.774 7.68821 17.9774 7.47257 18.1624 7.33843C18.2996 7.23933 18.3755 7.22858 18.4018 7.22858C18.4142 7.22858 18.4243 7.23061 18.434 7.23483C18.4601 7.24635 18.5499 7.30459 18.6047 7.56992C18.6537 7.80557 18.6572 8.11553 18.6154 8.4912ZM48.6676 11.3621C48.5618 11.1991 48.3575 11.0938 48.1472 11.0938C47.9477 11.0938 47.7686 11.1863 47.656 11.3479C47.527 11.5329 47.3678 11.7525 47.1827 12.0007C46.9796 12.2729 46.7604 12.5339 46.5313 12.7764C46.3036 13.0177 46.0818 13.2275 45.8716 13.4C45.6544 13.5785 45.5139 13.6159 45.4344 13.6159C45.3787 13.6159 45.2752 13.6159 45.2516 13.3446C45.2273 13.0605 45.2698 12.691 45.378 12.2464C45.4887 11.7896 45.649 11.2826 45.8546 10.7393C46.064 10.1864 46.2743 9.65832 46.4793 9.16978C46.6924 8.66198 46.8755 8.2398 47.0387 7.87915C47.2015 7.52014 47.3035 7.28653 47.3424 7.18437C47.4726 6.88859 47.425 6.5971 47.2047 6.34096C47.0025 6.1062 46.7319 5.9417 46.4008 5.85188C46.0773 5.76415 45.7247 5.75909 45.3571 5.83674C44.9635 5.92011 44.6514 6.14557 44.4297 6.5064C44.2342 6.82316 43.9799 7.32084 43.6739 7.98554C43.3668 8.65179 43.0701 9.39155 42.7919 10.1842C42.6232 10.6649 42.4674 11.1537 42.3266 11.6456C42.0921 12.4639 41.6098 13.1913 40.9448 13.7294C40.7067 13.9221 40.4562 14.1037 40.1957 14.2725C40.0804 14.3473 39.9645 14.4165 39.8481 14.4799C39.8113 14.4999 39.7729 14.4559 39.7984 14.4229C39.9993 14.1608 40.1969 13.8777 40.3897 13.575C40.7871 12.9519 41.1491 12.2057 41.4658 11.3571C41.8006 10.4587 42.0107 9.63921 42.0902 8.92114C42.1703 8.19432 42.1425 7.56007 42.0071 7.03601C41.867 6.495 41.6223 6.06936 41.279 5.77087C40.9237 5.46253 40.4844 5.30613 39.974 5.30613C39.372 5.30613 38.8186 5.46391 38.3295 5.77511C37.9953 5.98763 37.6857 6.2251 37.4052 6.48404C37.3818 6.50552 37.3626 6.50293 37.3457 6.47638C37.2833 6.37808 37.1994 6.28545 37.0939 6.19883C36.8565 6.00465 36.571 5.87457 36.2446 5.81234C35.9172 5.75077 35.5845 5.77308 35.2601 5.87854C34.9131 5.99138 34.6543 6.22471 34.4908 6.57221C34.177 7.24165 33.8457 8.02299 33.5058 8.89448C33.1669 9.76471 32.8364 10.6744 32.5231 11.5983C32.4884 11.7008 32.4539 11.8033 32.4195 11.9058C32.155 12.6937 31.6583 13.3852 30.9933 13.8909C30.818 14.0243 30.6366 14.1518 30.4502 14.2725C30.335 14.3473 30.2189 14.4165 30.1025 14.4799C30.0657 14.5 30.0273 14.456 30.0528 14.4229C30.2537 14.161 30.4512 13.8779 30.644 13.5751C31.0413 12.9525 31.4034 12.2063 31.7205 11.3571C32.0552 10.4586 32.2653 9.6391 32.3447 8.92114C32.4249 8.19398 32.3971 7.55974 32.2617 7.03601C32.1219 6.49522 31.8771 6.06958 31.5337 5.77087C31.1782 5.46248 30.739 5.30613 30.2289 5.30613C29.6264 5.30613 29.0731 5.46391 28.5841 5.775C28.2497 5.98763 27.9401 6.2251 27.6597 6.48387C27.6365 6.5053 27.6173 6.50287 27.6005 6.47616C27.538 6.37803 27.4539 6.2854 27.3483 6.19894C27.1112 6.0047 26.8256 5.87468 26.4989 5.81234C26.1715 5.75066 25.8386 5.77308 25.5148 5.87854C25.1683 5.99116 24.9092 6.22443 24.745 6.57232C24.4312 7.2428 24.0998 8.02409 23.7605 8.89454C23.4421 9.71234 23.1323 10.5611 22.8386 11.4201C22.6169 12.0685 22.285 12.5893 21.7897 13.0665C21.6618 13.1897 21.5371 13.3012 21.4166 13.4C21.1994 13.5785 21.059 13.6159 20.9794 13.6159C20.9237 13.6159 20.82 13.6159 20.7968 13.3444C20.7723 13.061 20.8148 12.6916 20.923 12.2464C21.0335 11.7898 21.1939 11.2827 21.3996 10.7393C21.6067 10.1921 21.8171 9.66393 22.0243 9.16978C22.2335 8.67156 22.4219 8.23727 22.5838 7.87915C22.7497 7.51304 22.8489 7.28554 22.8869 7.18426C23.0178 6.88859 22.9702 6.5971 22.7499 6.34096C22.547 6.10581 22.2717 5.94104 21.9309 5.85133C21.5982 5.76404 21.2464 5.7592 20.8876 5.83701C20.5035 5.92061 20.1962 6.1459 19.9747 6.50574C19.9304 6.577 19.8842 6.65558 19.8352 6.74282C19.8179 6.77399 19.7708 6.76699 19.7634 6.73219C19.7212 6.53564 19.6532 6.34989 19.5603 6.17724C19.4209 5.91995 19.2147 5.70886 18.9473 5.54965C18.6757 5.38808 18.3309 5.30613 17.9226 5.30613C16.96 5.30613 15.9836 5.74615 15.0208 6.61401C14.0756 7.46628 13.2922 8.82576 12.6916 10.656C12.4097 11.5385 12.2445 12.3541 12.2002 13.0806C12.1555 13.8157 12.2154 14.4502 12.3779 14.966C12.5454 15.4979 12.8128 15.9178 13.1731 16.2138C13.5446 16.5197 13.991 16.6749 14.4998 16.6749C14.8764 16.6749 15.2355 16.6106 15.5675 16.4836C15.8892 16.3604 16.1876 16.2022 16.4541 16.0134C16.6592 15.8681 16.8502 15.7038 17.0236 15.5231C17.1473 15.3944 17.3652 15.4465 17.4161 15.6167C17.4731 15.8076 17.5526 15.9774 17.6543 16.1252C17.9058 16.4899 18.3038 16.6749 18.8372 16.6749C19.4281 16.6749 20.0252 16.4554 20.6118 16.0226C20.8852 15.8211 21.1524 15.6012 21.4112 15.3649C21.4694 15.3118 21.5611 15.3687 21.5383 15.4437C21.3871 15.9414 21.2514 16.4027 21.1293 16.8354C20.9233 17.5628 20.7557 18.1893 20.6311 18.6977C20.4644 19.3796 20.4429 19.5649 20.4429 19.6504C20.4429 20.0684 20.574 20.4248 20.8328 20.7098C21.0828 20.9839 21.3724 21.1805 21.6947 21.2944C21.9066 21.3689 22.1137 21.4067 22.3094 21.4067C22.4178 21.4067 22.5246 21.395 22.6272 21.3721C22.8582 21.3203 23.1513 21.1679 23.2366 20.7354L23.2381 20.727C23.272 20.4993 23.3368 20.1907 23.4306 19.8098C23.528 19.4145 23.6464 18.9647 23.7826 18.4724C23.9169 17.9829 24.0706 17.4376 24.252 16.8054C24.3357 16.5132 24.4256 16.207 24.5212 15.8889C24.5408 15.8242 24.629 15.8139 24.6631 15.8723C24.7055 15.9451 24.7529 16.0161 24.805 16.0851C25.099 16.4754 25.568 16.6737 26.1993 16.6749C26.326 16.6805 26.4533 16.6834 26.5776 16.6834H26.5778C27.506 16.6834 28.3777 16.5256 29.1686 16.2145C29.9244 15.9177 30.6167 15.5549 31.2335 15.1348C31.294 15.0936 31.3732 15.1509 31.3519 15.2206C31.1748 15.7983 31.0151 16.339 30.8747 16.8355C30.6676 17.568 30.4998 18.1945 30.3763 18.6977C30.2098 19.3808 30.1883 19.5657 30.1883 19.6504C30.1883 20.0683 30.3194 20.4245 30.5783 20.7098C30.8282 20.9841 31.1181 21.1807 31.4402 21.2944C31.6523 21.3688 31.8588 21.4067 32.0546 21.4067C32.163 21.4067 32.27 21.395 32.373 21.3721C32.6038 21.3203 32.8968 21.1678 32.9822 20.7354L32.9838 20.7269C33.0176 20.4984 33.0825 20.1899 33.1763 19.8097C33.2735 19.4146 33.3917 18.9648 33.5279 18.4724C33.6631 17.9808 33.8168 17.4356 33.9976 16.8054C34.0815 16.5126 34.1714 16.2064 34.2667 15.8887C34.2861 15.824 34.3743 15.8137 34.4085 15.8721C34.451 15.945 34.4985 16.016 34.5507 16.0851C34.8444 16.4753 35.3134 16.6737 35.9448 16.6749C36.0716 16.6805 36.1988 16.6834 36.3232 16.6834H36.3234C37.2513 16.6834 38.1231 16.5256 38.9142 16.2145C39.7997 15.8668 40.5999 15.429 41.2928 14.9132C41.4106 14.8254 41.5254 14.7366 41.6372 14.647C41.6884 14.6059 41.7648 14.6428 41.7637 14.7081C41.7632 14.7374 41.763 14.7666 41.763 14.7954C41.763 15.3441 41.8794 15.7915 42.1093 16.1252C42.3608 16.4899 42.7589 16.6749 43.2922 16.6749C43.8821 16.6749 44.4831 16.4558 45.0784 16.0236C45.6443 15.6131 46.1786 15.1278 46.6667 14.5809C47.1481 14.0419 47.5711 13.5048 47.9243 12.9844C48.2812 12.4577 48.5216 12.0975 48.6588 11.8832C48.7685 11.7122 48.7715 11.5222 48.6676 11.3621ZM5.15957 14.2972C5.24279 13.9645 5.33745 13.6155 5.44204 13.2563C5.46569 13.1751 5.58585 13.1856 5.59455 13.2696C5.62322 13.5453 5.65931 13.8168 5.70187 14.0783C5.74973 14.3742 5.80746 14.6676 5.87379 14.9501C5.9405 15.2332 6.0162 15.5083 6.09847 15.7679C6.18231 16.0322 6.2753 16.2882 6.37431 16.5287C6.47455 16.7722 6.58438 17.0083 6.70102 17.2302C6.81738 17.4525 6.944 17.6675 7.07765 17.8694C7.21136 18.0716 7.35505 18.2645 7.50471 18.4428C7.65671 18.6237 7.81708 18.7931 7.98214 18.9462C8.1193 19.0736 8.26344 19.1933 8.41031 19.3024C8.59227 19.4374 8.78354 19.5592 8.97866 19.6645C9.17719 19.7718 9.38453 19.8644 9.5941 19.9395C9.70298 19.9786 9.81192 20.0131 9.9179 20.0419C10.0276 20.0722 10.1396 20.0985 10.2513 20.1201C10.4762 20.1638 10.7085 20.191 10.9418 20.2009C11.0098 20.2038 11.0776 20.2051 11.1456 20.2051C11.3138 20.2051 11.4861 20.1964 11.658 20.1791C11.8996 20.1546 12.1465 20.1124 12.392 20.0539C12.6377 19.9955 12.8895 19.9189 13.1405 19.8262C13.3918 19.7329 13.6473 19.6219 13.8996 19.496C14.0305 19.4305 14.1595 19.362 14.2828 19.2926C14.5281 19.1546 14.7768 18.9997 15.022 18.8323C15.2794 18.6564 15.5433 18.4596 15.8061 18.2474C15.9148 18.1593 16.0242 18.0679 16.1331 17.9739C16.3553 17.7826 16.3936 17.4565 16.2217 17.2204C16.0498 16.9841 15.7238 16.9149 15.4681 17.0601C15.3893 17.1049 15.3104 17.1476 15.2319 17.1878C15.0271 17.2932 14.8193 17.3855 14.614 17.4618C14.4135 17.5365 14.2118 17.5973 14.0142 17.643C13.8205 17.6877 13.6263 17.7188 13.4362 17.7352C13.2492 17.7516 13.0618 17.7542 12.8816 17.743C12.7014 17.7317 12.5224 17.7066 12.3496 17.6684C12.1767 17.6302 12.0047 17.5776 11.8387 17.5123C11.6703 17.4458 11.5049 17.3653 11.3474 17.2727C11.1854 17.1773 11.0272 17.0673 10.8769 16.9455C10.7228 16.8206 10.5731 16.6801 10.4316 16.5279C10.2861 16.3711 10.1465 16.1991 10.0167 16.0165C9.88315 15.829 9.75603 15.625 9.63889 15.4102C9.51929 15.1911 9.40695 14.9551 9.30521 14.7083C9.25422 14.5853 9.2043 14.4553 9.15683 14.3219C9.08231 14.1132 9.01297 13.8926 8.95077 13.6664C8.87062 13.3739 8.80022 13.0648 8.7416 12.7476C8.68202 12.4249 8.6331 12.0843 8.59629 11.7353C8.56416 11.4308 8.54095 11.1158 8.52678 10.7961C8.52489 10.7535 8.53984 10.7324 8.58123 10.7196C9.23252 10.5172 9.86017 10.2661 10.4503 9.97162C11.1659 9.61412 11.7998 9.18784 12.3347 8.70486C12.8746 8.21787 13.3082 7.66282 13.6237 7.05491C13.9415 6.4415 14.1027 5.76394 14.1027 5.04125C14.1027 4.37043 13.9192 3.77125 13.5569 3.26033C13.2012 2.75808 12.7296 2.33108 12.1553 1.99109C11.5879 1.65505 10.9347 1.39948 10.2139 1.23141C9.4991 1.06498 8.76569 0.980613 8.03413 0.980613C6.74971 0.980613 5.58925 1.19035 4.58519 1.60406C3.58744 2.0153 2.74213 2.51738 2.07265 3.09593C1.40216 3.6753 0.884574 4.28848 0.534102 4.91829C0.174762 5.56463 0 6.09948 0 6.55343C0 7.07346 0.123555 7.49513 0.367373 7.80647C0.609574 8.1161 0.880558 8.32749 1.17318 8.43491C1.47736 8.54672 1.77333 8.55918 2.04214 8.47306C2.34871 8.37519 2.51756 8.14783 2.51756 7.83287C2.51756 7.3938 2.64943 6.86581 2.90903 6.26344C3.17115 5.65586 3.54432 5.06996 4.0179 4.52204C4.48864 3.97676 5.06496 3.507 5.7311 3.12551C6.38095 2.75297 7.12038 2.56409 7.9292 2.56409C8.68855 2.56409 9.29014 2.74194 9.71715 3.09285C10.139 3.43971 10.3529 4.00124 10.3529 4.76169C10.3529 5.35314 10.2308 5.91467 9.99003 6.4308C9.74666 6.95265 9.42296 7.43277 9.02814 7.85795C8.63199 8.28418 8.1791 8.65974 7.68176 8.97404C7.37848 9.16578 7.06783 9.33363 6.75356 9.47613C6.69081 9.5045 6.62432 9.44467 6.64752 9.38073C6.88309 8.73005 7.13321 8.06132 7.39382 7.38524C7.71578 6.55052 8.07635 5.69307 8.46727 4.83349C8.62033 4.49657 8.42404 4.10575 8.05906 4.02105C7.45311 3.88031 6.73767 3.85715 5.91289 3.9514C5.54858 3.993 5.23275 4.21877 5.0798 4.54668C4.61286 5.54772 4.18296 6.56292 3.79902 7.57164C3.35266 8.74548 2.96347 9.84823 2.64251 10.8495C2.31898 11.8582 2.0664 12.7515 1.89181 13.5044C1.71225 14.2765 1.62495 14.8186 1.62495 15.1616C1.62495 15.5829 1.77238 15.9409 2.06283 16.2254C2.33967 16.4965 2.65645 16.6906 3.00436 16.8023C3.35757 16.9153 3.70017 16.941 4.01907 16.879C4.3894 16.8073 4.62134 16.5874 4.69062 16.2385C4.72453 16.042 4.78511 15.7728 4.87107 15.4382C4.9582 15.0967 5.05476 14.7162 5.15957 14.2972Z" fill="#FF441F"/>
</svg>
